<svg xmlns="http://www.w3.org/2000/svg" width="169" height="59" viewBox="0 0 169 59" fill="none">
<path d="M38.3121 38.5878C36.5076 40.4523 34.1994 41.7511 31.6691 42.3257C29.1389 42.9004 26.496 42.726 24.0632 41.8239C21.6304 40.9218 19.5128 39.331 17.9689 37.2456C16.4249 35.1603 15.5215 32.6706 15.3687 30.0804C15.216 27.4902 15.8206 24.9116 17.1087 22.6592C18.3969 20.4068 20.3128 18.5782 22.6228 17.3964C24.9327 16.2146 27.5367 15.7309 30.117 16.0042C32.6972 16.2774 35.1421 17.296 37.1533 18.9354" stroke="url(#paint0_linear_3457_125503)" stroke-width="3.1367" stroke-linecap="round"/>
<path d="M43.8016 43.2776C41.0279 46.1434 37.48 48.1397 33.5909 49.0229C29.7017 49.9062 25.6396 49.6382 21.9002 48.2516C18.1608 46.865 14.9059 44.4199 12.5328 41.2146C10.1597 38.0093 8.77105 34.1825 8.53629 30.2012C8.30152 26.2199 9.23081 22.2564 11.2107 18.7944C13.1907 15.3324 16.1356 12.5217 19.6861 10.7052C23.2366 8.88879 27.2391 8.14522 31.2051 8.56527C35.1711 8.98532 38.9291 10.5508 42.0203 13.0707" stroke="url(#paint1_linear_3457_125503)" stroke-width="3.1367" stroke-linecap="round"/>
<path d="M28.6407 37.1544C26.5107 37.1544 24.7471 36.4728 23.3498 35.1096C21.9867 33.7464 21.3051 32.0084 21.3051 29.8954C21.3051 27.7825 21.9952 26.0445 23.3754 24.6813C24.7727 23.3181 26.5618 22.6365 28.7429 22.6365C30.1743 22.6365 31.4608 22.9773 32.6024 23.6589C33.7611 24.3235 34.6216 25.2521 35.1839 26.4449L32.4746 27.9018C31.5886 26.4364 30.3617 25.7037 28.794 25.7037C27.6013 25.7037 26.6044 26.1041 25.8036 26.905C25.0197 27.6888 24.6278 28.6856 24.6278 29.8954C24.6278 31.0882 25.0112 32.0851 25.778 32.8859C26.5448 33.6868 27.5161 34.0872 28.6918 34.0872C29.4586 34.0872 30.1828 33.8913 30.8644 33.4993C31.563 33.0904 32.0827 32.5622 32.4235 31.9147L35.1328 33.4993C34.5194 34.624 33.6333 35.5186 32.4746 36.1831C31.333 36.8306 30.055 37.1544 28.6407 37.1544ZM36.6053 29.8954C36.6053 27.8507 37.2954 26.1297 38.6756 24.7324C40.0899 23.3181 41.8706 22.611 44.0176 22.611C46.1816 22.611 47.9538 23.3181 49.334 24.7324C50.7312 26.1297 51.4299 27.8507 51.4299 29.8954C51.4299 31.9743 50.7312 33.7123 49.334 35.1096C47.9538 36.5069 46.1816 37.2055 44.0176 37.2055C41.8535 37.2055 40.0729 36.5069 38.6756 35.1096C37.2954 33.7123 36.6053 31.9743 36.6053 29.8954ZM48.0816 29.8954C48.0816 28.7197 47.6896 27.7314 46.9058 26.9305C46.105 26.1126 45.1422 25.7037 44.0176 25.7037C42.893 25.7037 41.9302 26.1126 41.1293 26.9305C40.3455 27.7314 39.9536 28.7197 39.9536 29.8954C39.9536 31.0882 40.3455 32.0851 41.1293 32.8859C41.9302 33.7038 42.893 34.1128 44.0176 34.1128C45.1422 34.1128 46.105 33.7038 46.9058 32.8859C47.6896 32.0851 48.0816 31.0882 48.0816 29.8954ZM55.8093 21.3074C55.1959 21.3074 54.6847 21.1115 54.2758 20.7195C53.8668 20.3276 53.6623 19.825 53.6623 19.2115C53.6623 18.6151 53.8668 18.121 54.2758 17.7291C54.7018 17.3201 55.213 17.1156 55.8093 17.1156C56.4057 17.1156 56.8999 17.3201 57.2918 17.7291C57.7008 18.121 57.9052 18.6151 57.9052 19.2115C57.9052 19.825 57.7008 20.3276 57.2918 20.7195C56.8999 21.1115 56.4057 21.3074 55.8093 21.3074ZM57.4452 22.9688V36.8477H54.0969V22.9688H57.4452ZM64.0829 36.8477H60.7601V22.9688H64.0318V24.9113C64.4066 24.1957 64.9775 23.6333 65.7442 23.2244C66.511 22.8154 67.3971 22.611 68.4024 22.611C69.919 22.611 71.2055 23.1136 72.2619 24.119C73.3184 25.1243 73.8466 26.5471 73.8466 28.3874V36.8477H70.4983V29.3076C70.4983 28.1659 70.2257 27.2713 69.6804 26.6238C69.1352 25.9763 68.3939 25.6525 67.4567 25.6525C66.4684 25.6525 65.659 26.0019 65.0286 26.7005C64.3981 27.3821 64.0829 28.2681 64.0829 29.3587V36.8477ZM85.6516 33.4227L86.6995 36.0297C85.609 36.7965 84.2714 37.1799 82.6867 37.1799C79.5173 37.1799 77.9326 35.3737 77.9326 31.7613V25.7803H75.6322V22.9688H77.9837V18.0613H81.2809V22.9688H85.9327V25.7803H81.2809V31.6335C81.2809 33.3034 81.954 34.1383 83.3001 34.1383C84.0839 34.1383 84.8678 33.8998 85.6516 33.4227ZM91.7891 36.8477H88.4663V22.9688H91.6613V24.8858C92.5133 23.3692 93.7998 22.611 95.5208 22.611C96.1001 22.611 96.6539 22.7047 97.1822 22.8921L96.901 26.0871C96.3046 25.8996 95.7679 25.8059 95.2907 25.8059C94.2172 25.8059 93.3653 26.1723 92.7348 26.905C92.1043 27.6206 91.7891 28.6771 91.7891 30.0744V36.8477ZM109.184 24.7324V22.9688H112.353V36.8477H109.184V35.1352C107.974 36.4983 106.466 37.1799 104.66 37.1799C102.666 37.1799 101.022 36.4813 99.7267 35.084C98.4317 33.6868 97.7842 31.9402 97.7842 29.8443C97.7842 27.7484 98.4317 26.0274 99.7267 24.6813C101.039 23.3181 102.683 22.6365 104.66 22.6365C106.432 22.6365 107.94 23.3351 109.184 24.7324ZM109.26 29.8954C109.26 28.7197 108.877 27.7229 108.11 26.905C107.343 26.0871 106.364 25.6781 105.171 25.6781C103.978 25.6781 102.998 26.0871 102.232 26.905C101.482 27.7399 101.107 28.7367 101.107 29.8954C101.107 31.0712 101.482 32.0765 102.232 32.9115C102.998 33.7294 103.978 34.1383 105.171 34.1383C106.364 34.1383 107.343 33.7294 108.11 32.9115C108.877 32.0936 109.26 31.0882 109.26 29.8954ZM122.343 37.1544C120.213 37.1544 118.449 36.4728 117.052 35.1096C115.689 33.7464 115.007 32.0084 115.007 29.8954C115.007 27.7825 115.697 26.0445 117.077 24.6813C118.475 23.3181 120.264 22.6365 122.445 22.6365C123.876 22.6365 125.163 22.9773 126.304 23.6589C127.463 24.3235 128.324 25.2521 128.886 26.4449L126.177 27.9018C125.29 26.4364 124.064 25.7037 122.496 25.7037C121.303 25.7037 120.306 26.1041 119.505 26.905C118.722 27.6888 118.33 28.6856 118.33 29.8954C118.33 31.0882 118.713 32.0851 119.48 32.8859C120.247 33.6868 121.218 34.0872 122.394 34.0872C123.16 34.0872 123.885 33.8913 124.566 33.4993C125.265 33.0904 125.785 32.5622 126.125 31.9147L128.835 33.4993C128.221 34.624 127.335 35.5186 126.177 36.1831C125.035 36.8306 123.757 37.1544 122.343 37.1544ZM144.364 36.8477H140.223L135.469 30.79L134.447 31.7102V36.8477H131.124V17.4224H134.447V27.9274L139.789 22.9688H144.032L137.769 28.6941L144.364 36.8477Z" fill="#CA3FFF"/>
<path d="M156.459 24.7324V22.9688H159.628V36.8477H156.459V35.1352C155.249 36.4983 153.741 37.1799 151.935 37.1799C149.941 37.1799 148.297 36.4813 147.002 35.084C145.707 33.6868 145.059 31.9402 145.059 29.8443C145.059 27.7484 145.707 26.0274 147.002 24.6813C148.314 23.3181 149.958 22.6365 151.935 22.6365C153.707 22.6365 155.215 23.3351 156.459 24.7324ZM156.536 29.8954C156.536 28.7197 156.152 27.7229 155.386 26.905C154.619 26.0871 153.639 25.6781 152.446 25.6781C151.253 25.6781 150.274 26.0871 149.507 26.905C148.757 27.7399 148.382 28.7367 148.382 29.8954C148.382 31.0712 148.757 32.0765 149.507 32.9115C150.274 33.7294 151.253 34.1383 152.446 34.1383C153.639 34.1383 154.619 33.7294 155.386 32.9115C156.152 32.0936 156.536 31.0882 156.536 29.8954ZM164.787 21.3074C164.174 21.3074 163.662 21.1115 163.254 20.7195C162.845 20.3276 162.64 19.825 162.64 19.2115C162.64 18.6151 162.845 18.121 163.254 17.7291C163.68 17.3201 164.191 17.1156 164.787 17.1156C165.384 17.1156 165.878 17.3201 166.27 17.7291C166.679 18.121 166.883 18.6151 166.883 19.2115C166.883 19.825 166.679 20.3276 166.27 20.7195C165.878 21.1115 165.384 21.3074 164.787 21.3074ZM166.423 22.9688V36.8477H163.075V22.9688H166.423Z" fill="#5082FC"/>
<defs>
<linearGradient id="paint0_linear_3457_125503" x1="22.555" y1="21.2003" x2="38.8808" y2="44.7253" gradientUnits="userSpaceOnUse">
<stop stop-color="#CC3DFF"/>
<stop offset="0.260417" stop-color="#9665FF"/>
<stop offset="0.661458" stop-color="#5457FF"/>
<stop offset="0.875" stop-color="#5083FC"/>
<stop offset="1" stop-color="#466FFF"/>
</linearGradient>
<linearGradient id="paint1_linear_3457_125503" x1="19.582" y1="16.5521" x2="44.6756" y2="52.7113" gradientUnits="userSpaceOnUse">
<stop stop-color="#CC3DFF"/>
<stop offset="0.260417" stop-color="#9665FF"/>
<stop offset="0.661458" stop-color="#5457FF"/>
<stop offset="0.875" stop-color="#5083FC"/>
<stop offset="1" stop-color="#466FFF"/>
</linearGradient>
</defs>
</svg>